<svg width="22" height="22" viewBox="0 0 22 22" fill="none" xmlns="http://www.w3.org/2000/svg">
<path d="M15.1622 1.78369H6.24327C3.78038 1.78369 1.78381 3.78026 1.78381 6.24315V15.1621C1.78381 17.625 3.78038 19.6215 6.24327 19.6215H15.1622C17.6251 19.6215 19.6217 17.625 19.6217 15.1621V6.24315C19.6217 3.78026 17.6251 1.78369 15.1622 1.78369Z" stroke="white" stroke-width="1.78378" stroke-linecap="round" stroke-linejoin="round"/>
<path d="M14.2703 10.1409C14.3803 10.8832 14.2535 11.6413 13.9079 12.3074C13.5623 12.9734 13.0155 13.5136 12.3452 13.8509C11.6749 14.1883 10.9154 14.3057 10.1745 14.1865C9.43364 14.0673 8.74923 13.7175 8.21863 13.1869C7.68802 12.6563 7.33823 11.9719 7.21902 11.231C7.0998 10.4902 7.21723 9.73058 7.5546 9.06031C7.89197 8.39003 8.4321 7.8432 9.09816 7.4976C9.76423 7.15199 10.5223 7.0252 11.2646 7.13527C12.0217 7.24755 12.7227 7.60036 13.2639 8.1416C13.8052 8.68284 14.158 9.3838 14.2703 10.1409Z" stroke="white" stroke-width="1.78378" stroke-linecap="round" stroke-linejoin="round"/>
<path d="M15.6082 5.79736H15.6171" stroke="white" stroke-width="1.78378" stroke-linecap="round" stroke-linejoin="round"/>
</svg>
