<svg width="64" height="64" viewBox="0 0 64 64" fill="none" xmlns="http://www.w3.org/2000/svg">
<path d="M32 56C28.6318 53.1269 25.5099 49.9773 22.6667 46.584C18.4 41.488 13.3334 33.8986 13.3334 26.6666C13.3296 19.1134 17.878 12.3023 24.8562 9.41169C31.8344 6.52102 39.867 8.12059 45.2054 13.464C48.716 16.9589 50.6824 21.713 50.6667 26.6666C50.6667 33.8986 45.6 41.488 41.3334 46.584C38.4902 49.9773 35.3683 53.1269 32 56ZM32 18.6666C29.1419 18.6666 26.5009 20.1914 25.0719 22.6666C23.6428 25.1418 23.6428 28.1914 25.0719 30.6666C26.5009 33.1418 29.1419 34.6666 32 34.6666C36.4184 34.6666 40 31.0848 40 26.6666C40 22.2483 36.4184 18.6666 32 18.6666Z" fill="white"/>
</svg>
